<svg xmlns="http://www.w3.org/2000/svg" xmlns:xlink="http://www.w3.org/1999/xlink" width="1920" height="1903" viewBox="0 0 1920 1903">
  <defs>
    <linearGradient id="bg-a" x1="27.065%" x2="32.411%" y1=".933%" y2="40.12%">
      <stop offset="0%" stop-color="#4E2B7F"/>
      <stop offset="100%" stop-color="#2D1457"/>
    </linearGradient>
    <linearGradient id="bg-b" x1="50%" x2="50%" y1="0%" y2="100%">
      <stop offset="0%" stop-color="#512D82"/>
      <stop offset="100%" stop-color="#28144B"/>
    </linearGradient>
    <path id="bg-c" d="M2041,1292 C2159.35703,1240.44106 2005.39444,381.663834 2088.64193,217.224901 C2094.66886,205.319907 2098,193.630876 2098,182.214572 C2098,-83.5323509 2080.58681,-25 1699,144.104702 C1317.41319,313.209404 921.795237,544.715937 317.907591,580.264955 C212.360056,586.478215 -12.6784682,607 64.0822815,607 C64.9748745,607 -54.2080355,846.610797 31,876 C479.055513,1030.53935 2041,1292 2041,1292 Z"/>
    <linearGradient id="bg-d" x1="50.475%" x2="55.259%" y1="42.983%" y2="75.109%">
      <stop offset="0%" stop-color="#512D82"/>
      <stop offset="100%" stop-color="#28144B"/>
    </linearGradient>
    <path id="bg-e" d="M120.313405,932 C121,932 99,1540 113,1540 C1400.89748,1540 2252,338.770876 2252,183.223875 C2252,-84.3384948 2196.99546,-1.7276846 1839.7823,151.53609 C1482.56915,304.799865 1268,445 813,562.66492 C610.433103,615.049575 280.686595,638 113,657 C25.5088947,666.913321 15.4146899,667.990645 121,715 C125.308709,716.91835 120.313405,932 120.313405,932 Z"/>
  </defs>
  <g fill="none" fill-rule="evenodd">
    <rect width="1921" height="1903" x="-1" fill="url(#bg-a)"/>
    <g transform="translate(-132 200)">
      <use fill="url(#bg-b)" xlink:href="#bg-c"/>
      <use fill="url(#bg-d)" xlink:href="#bg-e"/>
    </g>
  </g>
</svg>
