<?xml version="1.0" encoding="utf-8"?>
<!-- Generator: Adobe Illustrator 22.0.1, SVG Export Plug-In . SVG Version: 6.00 Build 0)  -->
<svg version="1.1" id="Layer_1" xmlns="http://www.w3.org/2000/svg" xmlns:xlink="http://www.w3.org/1999/xlink" x="0px" y="0px"
	 viewBox="0 0 109 88" style="enable-background:new 0 0 109 88;" xml:space="preserve">
<style type="text/css">
	.st0{filter:url(#Adobe_OpacityMaskFilter);}
	.st1{fill:#FFFFFF;}
	.st2{mask:url(#icon-play-c_2_);fill:#262626;}
</style>
<defs>
	<filter id="Adobe_OpacityMaskFilter" filterUnits="userSpaceOnUse" x="20" y="18.1" width="69.3" height="47.9">
		<feColorMatrix  type="matrix" values="1 0 0 0 0  0 1 0 0 0  0 0 1 0 0  0 0 0 1 0"/>
	</filter>
</defs>
<mask maskUnits="userSpaceOnUse" x="20" y="18.1" width="69.3" height="47.9" id="icon-play-c_2_">
	<g class="st0">
		<polygon id="icon-play-b_2_" class="st1" points="20,18.1 89.3,18.1 89.3,66 20,66 		"/>
	</g>
</mask>
<path class="st2" d="M47.9,53.6V27.9c6.6,4.3,13,8.5,19.7,12.8C60.9,45.1,54.5,49.2,47.9,53.6 M78,18.1c-15.5,0-31.1,0-46.6,0
	c-7.1,0-11.3,4.2-11.3,11.2c0,8.5,0,16.9,0,25.4C20,61.9,24.2,66,31.5,66c7.7,0,15.4,0,23.1,0c7.8,0,15.7,0,23.5,0
	c7,0,11.2-4.2,11.2-11.1c0-8.5,0-17.1,0-25.6C89.3,22.3,85.1,18.1,78,18.1"/>
</svg>
